<?xml version="1.0" standalone="no"?><!DOCTYPE svg PUBLIC "-//W3C//DTD SVG 1.1//EN" "http://www.w3.org/Graphics/SVG/1.1/DTD/svg11.dtd"><svg class="icon" width="200px" height="200.00px" viewBox="0 0 1024 1024" version="1.1" xmlns="http://www.w3.org/2000/svg"><path d="M512 256a42.666667 42.666667 0 0 0-42.666667 42.666667v426.666666a42.666667 42.666667 0 0 0 85.333334 0V298.666667a42.666667 42.666667 0 0 0-42.666667-42.666667z m-213.333333 256a42.666667 42.666667 0 0 0-42.666667 42.666667v170.666666a42.666667 42.666667 0 0 0 85.333333 0v-170.666666a42.666667 42.666667 0 0 0-42.666666-42.666667z m426.666666-85.333333a42.666667 42.666667 0 0 0-42.666666 42.666666v256a42.666667 42.666667 0 0 0 85.333333 0v-256a42.666667 42.666667 0 0 0-42.666667-42.666666z m85.333334-341.333334H213.333333a128 128 0 0 0-128 128v597.333334a128 128 0 0 0 128 128h597.333334a128 128 0 0 0 128-128V213.333333a128 128 0 0 0-128-128z m42.666666 725.333334a42.666667 42.666667 0 0 1-42.666666 42.666666H213.333333a42.666667 42.666667 0 0 1-42.666666-42.666666V213.333333a42.666667 42.666667 0 0 1 42.666666-42.666666h597.333334a42.666667 42.666667 0 0 1 42.666666 42.666666z" /></svg>